<svg width="95" height="60" fill="none" xmlns="http://www.w3.org/2000/svg"><path d="M65.313 17.5c0-.663.312-1.299.869-1.768.557-.469 1.312-.732 2.1-.732h11.874c.788 0 1.543.263 2.1.732.556.47.869 1.105.869 1.768v5c0 .663-.313 1.299-.87 1.768-.556.469-1.311.732-2.099.732H68.281c-.787 0-1.542-.263-2.099-.732-.557-.47-.87-1.105-.87-1.768v-5Z" fill="currentColor"/><path d="M11.875 0c-3.15 0-6.17 1.054-8.397 2.929C1.251 4.804 0 7.348 0 10v40c0 2.652 1.251 5.196 3.478 7.071C5.705 58.946 8.726 60 11.875 60h71.25c3.15 0 6.17-1.054 8.397-2.929C93.749 55.196 95 52.652 95 50V10c0-2.652-1.251-5.196-3.478-7.071C89.295 1.054 86.274 0 83.125 0h-71.25Zm77.188 10v25H5.936V10c0-1.326.626-2.598 1.74-3.536C8.79 5.527 10.3 5 11.875 5h71.25c1.575 0 3.085.527 4.198 1.464 1.114.938 1.74 2.21 1.74 3.536Zm-5.938 45h-71.25c-1.575 0-3.085-.527-4.198-1.465-1.114-.937-1.74-2.209-1.74-3.535v-5h83.126v5c0 1.326-.626 2.598-1.74 3.535C86.21 54.474 84.7 55 83.125 55Z" fill="currentColor"/></svg>