<svg xmlns="http://www.w3.org/2000/svg" width="25" height="25" fill="none"><circle cx="13" cy="13" r="12.5" stroke="currentColor" transform="scale(.96154)"/><path d="M8.227 7.257a.48.48 0 0 1 .48-.481h9.191c.796 0 1.44.645 1.44 1.442v5.715a.479.479 0 0 1-.48.479" stroke="currentColor" stroke-width=".962"/><path d="M5.663 15.996v-6.56a.962.962 0 0 1 .961-.962h10.042a.962.962 0 0 1 .962.962v6.56a.962.962 0 0 1-.962.962H12.5l-3.91 2.329a.24.24 0 0 1-.364-.207v-2.122H6.625a.962.962 0 0 1-.962-.962Z" fill="currentColor" stroke="currentColor" stroke-width=".962"/></svg>