<svg xmlns="http://www.w3.org/2000/svg" width="25" height="25" fill="none"><circle cx="13" cy="9.664" r="4" fill="currentColor" transform="scale(.96154)"/><path d="M20.673 17.967c0 .427-.19.94-.594 1.49-.403.545-.997 1.097-1.746 1.59-1.5.985-3.571 1.707-5.833 1.707s-4.334-.722-5.833-1.708c-.75-.493-1.343-1.044-1.746-1.59-.405-.548-.594-1.062-.594-1.49 0-.35.162-.703.536-1.053.38-.356.955-.687 1.708-.968 1.503-.56 3.606-.883 5.929-.883 2.33 0 4.433.28 5.935.818 1.545.554 2.238 1.292 2.238 2.086Z" fill="currentColor"/><circle cx="13" cy="13" r="12.5" stroke="currentColor" transform="scale(.96154)"/></svg>