<svg viewBox="0 0 30 30" fill="none" xmlns="http://www.w3.org/2000/svg"><path d="M20.765 8.7c1.864 3 1.864 8.812 0 11.812m4.197-17.719c5.58 6.426 5.613 17.241 0 23.625M1.177 19.6V9.611c0-.969.627-1.755 1.4-1.755h5.017a1.17 1.17 0 0 0 .538-.136 1.4 1.4 0 0 0 .45-.38l4.198-5.716c.881-1.107 2.388-.323 2.388 1.242v23.48c0 1.576-1.525 2.354-2.4 1.225l-4.184-5.685a1.408 1.408 0 0 0-.455-.391 1.173 1.173 0 0 0-.547-.14H2.576c-.772 0-1.399-.786-1.399-1.756Z" stroke="#929292" stroke-width="2" stroke-linecap="round" stroke-linejoin="round"/></svg>