<svg viewBox="0 0 119 113" fill="none" xmlns="http://www.w3.org/2000/svg"><path fill-rule="evenodd" clip-rule="evenodd" d="M64.974 61.526c9.44-2.083 16.447-9.79 16.447-18.977 0-10.786-9.659-19.53-21.573-19.53s-21.573 8.744-21.573 19.53c0 8.93 6.618 16.459 15.656 18.787-.476.12-.948.257-1.416.408-5.687 1.835-10.685 5.862-14.803 10.602-4.126 4.75-7.443 10.304-9.749 15.342l2.53 1.164c2.217-4.844 5.399-10.16 9.319-14.674 3.929-4.523 8.525-8.155 13.556-9.778 4.97-1.604 10.474-1.287 16.403 2.277 5.983 3.596 12.452 10.535 19.14 22.284l2.418-1.382c-6.813-11.967-13.575-19.357-20.127-23.295-2.107-1.267-4.186-2.172-6.228-2.758Zm-5.126-2.236c10.65 0 18.79-7.755 18.79-16.74 0-8.986-8.14-16.741-18.79-16.741-10.65 0-18.79 7.755-18.79 16.74 0 8.986 8.14 16.741 18.79 16.741Z" fill="currentColor"/><path fill-rule="evenodd" clip-rule="evenodd" d="M59.5 113c32.861 0 59.5-25.296 59.5-56.5S92.361 0 59.5 0C26.64 0 0 25.296 0 56.5S26.64 113 59.5 113Zm0-2.79c31.467 0 56.716-24.187 56.716-53.71S90.967 2.79 59.5 2.79C28.033 2.79 2.784 26.977 2.784 56.5s25.249 53.71 56.716 53.71Z" fill="currentColor"/></svg>